<svg fill="none" height="24" viewBox="0 0 24 24" width="24" xmlns="http://www.w3.org/2000/svg"><g stroke="#000" stroke-linecap="round" stroke-linejoin="round" stroke-width="2"><path d="m10.29 3.86-8.47 14.14c-.17.3-.27.65-.27.99 0 .35.09.7.26 1 .18.3.43.56.73.73.3.18.64.28.99.28h16.94c.35 0 .69-.1.99-.28.3-.17.55-.43.73-.73.17-.3.26-.65.26-1 0-.34-.1-.69-.27-.99l-8.47-14.14c-.18-.29-.43-.54-.73-.71-.3-.16-.64-.25-.98-.25s-.68.09-.98.25c-.3.17-.55.42-.73.71z"/><path d="m12 9v4"/><path d="m12 17h.01"/></g></svg>