<svg fill="none" height="24" viewBox="0 0 24 24" width="24" xmlns="http://www.w3.org/2000/svg"><g stroke="#000" stroke-linecap="round" stroke-linejoin="round" stroke-width="2"><path d="m12 16c2.21 0 4-1.79 4-4s-1.79-4-4-4-4 1.79-4 4 1.79 4 4 4z"/><path d="m16 8v5c0 .8.32 1.56.88 2.12s1.32.88 2.12.88 1.56-.32 2.12-.88.88-1.32.88-2.12v-1c0-2.26-.76-4.45-2.17-6.22-1.4-1.76-3.36-3-5.56-3.52-2.2-.51-4.5-.27-6.54.7-2.04.96-3.7 2.59-4.7 4.61-1 2.03-1.28 4.33-.81 6.54.48 2.2 1.69 4.18 3.43 5.62 1.74 1.43 3.92 2.23 6.18 2.27 2.25.04 4.46-.69 6.25-2.06"/></g></svg>