<svg fill="none" height="24" viewBox="0 0 24 24" width="24" xmlns="http://www.w3.org/2000/svg" xmlns:xlink="http://www.w3.org/1999/xlink"><clipPath id="a"><path d="m0 0h24v24h-24z"/></clipPath><g clip-path="url(#a)" stroke="#000" stroke-linecap="round" stroke-linejoin="round" stroke-width="2"><path d="m13.73 21c-.18.3-.43.55-.73.73-.31.17-.65.27-1 .27s-.69-.1-1-.27c-.3-.18-.55-.43-.73-.73"/><path d="m18.63 13c-.45-1.63-.66-3.31-.63-5"/><path d="m6.26 6.26c-.17.56-.26 1.15-.26 1.74 0 7-3 9-3 9h14"/><path d="m18 8c0-1.09-.29-2.15-.85-3.09-.56-.93-1.36-1.69-2.32-2.21-.95-.51-2.03-.75-3.12-.7-1.08.05-2.14.4-3.04 1"/><path d="m1 1 22 22"/></g></svg>