<svg fill="none" height="24" viewBox="0 0 24 24" width="24" xmlns="http://www.w3.org/2000/svg" xmlns:xlink="http://www.w3.org/1999/xlink"><clipPath id="a"><path d="m0 0h24v24h-24z"/></clipPath><g clip-path="url(#a)" stroke="#000" stroke-linecap="round" stroke-linejoin="round" stroke-width="2"><path d="m1 1 22 22"/><path d="m9 3h6l2 3h4c.53 0 1.04.21 1.41.59.38.37.59.88.59 1.41v9.34m-7.72-2.06c-.33.49-.77.89-1.27 1.19-.51.3-1.08.48-1.66.53-.59.06-1.18-.02-1.73-.22s-1.05-.51-1.47-.93-.73-.92-.93-1.47-.28-1.14-.22-1.73c.05-.58.23-1.15.53-1.66.3-.5.7-.94 1.19-1.27m11.28 11.28h-18c-.53 0-1.04-.21-1.41-.59-.38-.37-.59-.88-.59-1.41v-11c0-.53.21-1.04.59-1.41.37-.38.88-.59 1.41-.59h3z"/></g></svg>