<svg fill="none" height="24" viewBox="0 0 24 24" width="24" xmlns="http://www.w3.org/2000/svg" xmlns:xlink="http://www.w3.org/1999/xlink"><clipPath id="a"><path d="m0 0h24v24h-24z"/></clipPath><g clip-path="url(#a)" stroke="#000" stroke-linecap="round" stroke-linejoin="round" stroke-width="2"><path d="m19 16.9c1.22-.25 2.3-.94 3.03-1.93.74-1 1.07-2.24.95-3.47-.12-1.24-.7-2.38-1.62-3.21s-2.12-1.29-3.36-1.29h-1.26c-.33-1.28-.98-2.46-1.88-3.44-.9-.97-2.02-1.7-3.28-2.13-1.25-.43-2.59-.54-3.9-.32-1.3.22-2.54.75-3.58 1.57-1.05.81-1.88 1.87-2.42 3.08s-.76 2.53-.66 3.85.53 2.6 1.24 3.71c.72 1.12 1.7 2.04 2.86 2.68"/><path d="m13 11-4 6h6l-4 6"/></g></svg>