<svg fill="none" height="24" viewBox="0 0 24 24" width="24" xmlns="http://www.w3.org/2000/svg" xmlns:xlink="http://www.w3.org/1999/xlink"><clipPath id="a"><path d="m0 0h24v24h-24z"/></clipPath><g clip-path="url(#a)" stroke="#000" stroke-linecap="round" stroke-linejoin="round" stroke-width="2"><path d="m22.61 16.95c.32-.76.45-1.59.37-2.41-.07-.82-.35-1.62-.81-2.3-.45-.69-1.07-1.26-1.8-1.65s-1.54-.59-2.37-.59h-1.26c-.41-1.61-1.31-3.05-2.57-4.12-1.26-1.08-2.83-1.73-4.48-1.88m-4.69 1c-1.56.86-2.79 2.22-3.49 3.87-.7 1.64-.83 3.47-.37 5.19.46 1.73 1.48 3.25 2.91 4.32 1.42 1.08 3.17 1.65 4.95 1.62h9c.58 0 1.16-.1 1.7-.3"/><path d="m1 1 22 22"/></g></svg>