<svg fill="none" height="24" viewBox="0 0 24 24" width="24" xmlns="http://www.w3.org/2000/svg" xmlns:xlink="http://www.w3.org/1999/xlink"><clipPath id="a"><path d="m0 0h24v24h-24z"/></clipPath><g clip-path="url(#a)"><path d="m18 10h-1.26c-.37-1.45-1.15-2.76-2.23-3.8-1.09-1.03-2.44-1.73-3.9-2.04-1.47-.3-2.99-.18-4.39.34-1.41.52-2.64 1.42-3.55 2.6-.92 1.19-1.48 2.6-1.63 4.09-.16 1.49.11 2.99.77 4.34.66 1.34 1.69 2.47 2.96 3.26s2.73 1.21 4.23 1.21h9c1.33 0 2.6-.53 3.54-1.46.93-.94 1.46-2.21 1.46-3.54s-.53-2.6-1.46-3.54c-.94-.93-2.21-1.46-3.54-1.46z" stroke="#000" stroke-linecap="round" stroke-linejoin="round" stroke-width="2"/></g></svg>