<svg fill="none" height="24" viewBox="0 0 24 24" width="24" xmlns="http://www.w3.org/2000/svg" xmlns:xlink="http://www.w3.org/1999/xlink"><clipPath id="a"><path d="m0 0h24v24h-24z"/></clipPath><g clip-path="url(#a)" stroke="#000" stroke-linecap="round" stroke-linejoin="round" stroke-width="2"><path d="m20 17.58c1.05-.46 1.91-1.27 2.44-2.29.52-1.02.68-2.19.45-3.31-.24-1.12-.85-2.13-1.74-2.86-.89-.72-2-1.12-3.15-1.12h-1.26c-.32-1.23-.92-2.36-1.76-3.31s-1.9-1.68-3.08-2.14-2.46-.64-3.72-.51-2.47.56-3.53 1.25c-1.07.68-1.95 1.62-2.59 2.72-.63 1.09-.99 2.33-1.06 3.59-.06 1.27.18 2.53.7 3.69.52 1.15 1.31 2.17 2.3 2.96"/><path d="m8 16h.01"/><path d="m8 20h.01"/><path d="m12 18h.01"/><path d="m12 22h.01"/><path d="m16 16h.01"/><path d="m16 20h.01"/></g></svg>