<svg fill="none" height="24" viewBox="0 0 24 24" width="24" xmlns="http://www.w3.org/2000/svg"><path d="m18 3c-.8 0-1.56.32-2.12.88s-.88 1.32-.88 2.12v12c0 .8.32 1.56.88 2.12s1.32.88 2.12.88 1.56-.32 2.12-.88.88-1.32.88-2.12-.32-1.56-.88-2.12-1.32-.88-2.12-.88h-12c-.8 0-1.56.32-2.12.88s-.88 1.32-.88 2.12.32 1.56.88 2.12 1.32.88 2.12.88 1.56-.32 2.12-.88.88-1.32.88-2.12v-12c0-.8-.32-1.56-.88-2.12s-1.32-.88-2.12-.88-1.56.32-2.12.88-.88 1.32-.88 2.12.32 1.56.88 2.12 1.32.88 2.12.88h12c.8 0 1.56-.32 2.12-.88s.88-1.32.88-2.12-.32-1.56-.88-2.12-1.32-.88-2.12-.88z" stroke="#000" stroke-linecap="round" stroke-linejoin="round" stroke-width="2"/></svg>