<svg fill="none" height="24" viewBox="0 0 24 24" width="24" xmlns="http://www.w3.org/2000/svg" xmlns:xlink="http://www.w3.org/1999/xlink"><clipPath id="a"><path d="m0 0h24v24h-24z"/></clipPath><g clip-path="url(#a)" stroke="#000" stroke-linecap="round" stroke-linejoin="round" stroke-width="2"><path d="m18 4h-12c-1.1 0-2 .9-2 2v12c0 1.1.9 2 2 2h12c1.1 0 2-.9 2-2v-12c0-1.1-.9-2-2-2z"/><path d="m15 9h-6v6h6z"/><path d="m9 1v3"/><path d="m15 1v3"/><path d="m9 20v3"/><path d="m15 20v3"/><path d="m20 9h3"/><path d="m20 14h3"/><path d="m1 9h3"/><path d="m1 14h3"/></g></svg>