<svg fill="none" height="24" viewBox="0 0 24 24" width="24" xmlns="http://www.w3.org/2000/svg" xmlns:xlink="http://www.w3.org/1999/xlink"><clipPath id="a"><path d="m0 0h24v24h-24z"/></clipPath><g clip-path="url(#a)" stroke="#000" stroke-linecap="round" stroke-linejoin="round" stroke-width="2"><path d="m8 17 4 4 4-4"/><path d="m12 12v9"/><path d="m20.88 18.09c.87-.61 1.52-1.48 1.86-2.49s.35-2.1.03-3.11-.96-1.9-1.81-2.53c-.86-.62-1.9-.96-2.96-.96h-1.26c-.3-1.17-.86-2.26-1.65-3.18-.78-.93-1.76-1.66-2.87-2.15-1.1-.49-2.31-.72-3.52-.68-1.21.05-2.39.36-3.46.93s-1.99 1.37-2.71 2.35c-.71.97-1.19 2.1-1.41 3.29s-.16 2.42.17 3.58c.32 1.17.91 2.24 1.71 3.15"/></g></svg>