<svg fill="none" height="24" viewBox="0 0 24 24" width="24" xmlns="http://www.w3.org/2000/svg" xmlns:xlink="http://www.w3.org/1999/xlink"><clipPath id="a"><path d="m0 0h24v24h-24z"/></clipPath><g clip-path="url(#a)" stroke="#000" stroke-linecap="round" stroke-linejoin="round" stroke-width="2"><path d="m9.9 4.24c.69-.16 1.39-.24 2.1-.24 7 0 11 8 11 8-.61 1.14-1.33 2.2-2.16 3.19m-6.72-1.07c-.27.29-.61.53-.97.7-.37.16-.77.25-1.17.25-.4.01-.8-.06-1.18-.21-.37-.15-.71-.38-1-.66-.28-.29-.51-.63-.66-1-.15-.38-.22-.78-.21-1.18 0-.4.09-.8.25-1.17.17-.36.41-.7.7-.97m8.06 8.06c-1.71 1.3-3.79 2.02-5.94 2.06-7 0-11-8-11-8 1.24-2.32 2.97-4.34 5.06-5.94z"/><path d="m1 1 22 22"/></g></svg>