<svg fill="none" height="24" viewBox="0 0 24 24" width="24" xmlns="http://www.w3.org/2000/svg"><g stroke="#000" stroke-linecap="round" stroke-linejoin="round" stroke-width="2"><path d="m5 5.5c0-.93.37-1.82 1.03-2.47.65-.66 1.54-1.03 2.47-1.03h3.5v7h-3.5c-.93 0-1.82-.37-2.47-1.03-.66-.65-1.03-1.54-1.03-2.47z"/><path d="m12 2h3.5c.46 0 .91.09 1.34.27.42.17.81.43 1.13.76.33.32.59.71.76 1.13.18.43.27.88.27 1.34s-.09.91-.27 1.34c-.17.42-.43.81-.76 1.13-.32.33-.71.59-1.13.76-.43.18-.88.27-1.34.27h-3.5z"/><path d="m12 12.5c0-.46.09-.91.27-1.34.17-.42.43-.81.76-1.13.32-.33.71-.59 1.13-.76.43-.18.88-.27 1.34-.27s.91.09 1.34.27c.42.17.81.43 1.13.76.33.32.59.71.76 1.13.18.43.27.88.27 1.34s-.09.91-.27 1.34c-.17.42-.43.81-.76 1.13-.32.33-.71.59-1.13.76-.43.18-.88.27-1.34.27s-.91-.09-1.34-.27c-.42-.17-.81-.43-1.13-.76-.33-.32-.59-.71-.76-1.13-.18-.43-.27-.88-.27-1.34z"/><path d="m5 19.5c0-.93.37-1.82 1.03-2.47.65-.66 1.54-1.03 2.47-1.03h3.5v3.5c0 .93-.37 1.82-1.03 2.47-.65.66-1.54 1.03-2.47 1.03s-1.82-.37-2.47-1.03c-.66-.65-1.03-1.54-1.03-2.47z"/><path d="m5 12.5c0-.93.37-1.82 1.03-2.47.65-.66 1.54-1.03 2.47-1.03h3.5v7h-3.5c-.93 0-1.82-.37-2.47-1.03-.66-.65-1.03-1.54-1.03-2.47z"/></g></svg>