<svg fill="none" height="24" viewBox="0 0 24 24" width="24" xmlns="http://www.w3.org/2000/svg" xmlns:xlink="http://www.w3.org/1999/xlink"><clipPath id="a"><path d="m0 0h24v24h-24z"/></clipPath><g clip-path="url(#a)"><path d="m9 19c-5 1.5-5-2.5-7-3m14 6v-3.87c.04-.48-.03-.96-.19-1.41s-.42-.86-.75-1.2c3.14-.35 6.44-1.54 6.44-7 0-1.4-.54-2.74-1.5-3.75.46-1.22.42-2.57-.09-3.77 0 0-1.18-.35-3.91 1.48-2.29-.62-4.71-.62-7 0-2.73-1.83-3.91-1.48-3.91-1.48-.51 1.2-.55 2.55-.09 3.77-.97 1.02-1.51 2.37-1.5 3.78 0 5.42 3.3 6.61 6.44 7-.33.34-.58.75-.74 1.19-.17.44-.23.92-.2 1.39v3.87" stroke="#000" stroke-linecap="round" stroke-linejoin="round" stroke-width="2"/></g></svg>