<svg fill="none" height="24" viewBox="0 0 24 24" width="24" xmlns="http://www.w3.org/2000/svg" xmlns:xlink="http://www.w3.org/1999/xlink"><clipPath id="a"><path d="m0 0h24v24h-24z"/></clipPath><g clip-path="url(#a)"><path d="m22.65 14.39-10.65 7.74-10.65-7.74c-.14-.1-.25-.25-.3-.42-.06-.17-.06-.35 0-.52l1.22-3.78 2.44-7.51c.02-.06.06-.12.11-.16.08-.07.18-.11.29-.11s.21.04.29.11c.05.05.09.11.11.18l2.44 7.49h8.1l2.44-7.51c.02-.06.06-.12.11-.16.08-.07.18-.11.29-.11s.21.04.29.11c.05.05.09.11.11.18l2.44 7.51 1.27 3.76c.05.17.04.36-.02.53s-.18.31-.33.41z" stroke="#000" stroke-linecap="round" stroke-linejoin="round" stroke-width="2"/></g></svg>