<svg fill="none" height="24" viewBox="0 0 24 24" width="24" xmlns="http://www.w3.org/2000/svg"><path d="m20.84 4.61c-.51-.51-1.12-.92-1.78-1.19-.67-.28-1.39-.42-2.11-.42s-1.44.14-2.11.42c-.66.27-1.27.68-1.78 1.19l-1.06 1.06-1.06-1.06c-1.03-1.03-2.43-1.61-3.89-1.61s-2.86.58-3.89 1.61-1.61 2.43-1.61 3.89.58 2.86 1.61 3.89l1.06 1.06 7.78 7.78 7.78-7.78 1.06-1.06c.51-.51.92-1.12 1.19-1.78.28-.67.42-1.39.42-2.11s-.14-1.44-.42-2.11c-.27-.66-.68-1.27-1.19-1.78z" stroke="#000" stroke-linecap="round" stroke-linejoin="round" stroke-width="2"/></svg>