<svg fill="none" height="24" viewBox="0 0 24 24" width="24" xmlns="http://www.w3.org/2000/svg"><g stroke="#000" stroke-linecap="round" stroke-linejoin="round" stroke-width="2"><path d="m17 2h-10c-2.76 0-5 2.24-5 5v10c0 2.76 2.24 5 5 5h10c2.76 0 5-2.24 5-5v-10c0-2.76-2.24-5-5-5z"/><path d="m16 11.37c.12.83-.02 1.68-.41 2.43-.38.75-1 1.35-1.75 1.73s-1.6.51-2.43.38c-.83-.14-1.6-.53-2.19-1.12-.6-.6-.99-1.37-1.13-2.2-.13-.83 0-1.68.38-2.43s.98-1.37 1.73-1.75c.75-.39 1.6-.53 2.43-.41.85.13 1.64.52 2.24 1.13.61.6 1 1.39 1.13 2.24z"/><path d="m17.5 6.5h.01"/></g></svg>