<svg fill="none" height="24" viewBox="0 0 24 24" width="24" xmlns="http://www.w3.org/2000/svg"><path d="m15.5 7.5 3.5-3.5m2-2-2 2zm-9.61 9.61c.52.51.93 1.12 1.21 1.78.28.67.42 1.39.43 2.12 0 .72-.14 1.44-.42 2.11-.27.67-.68 1.28-1.19 1.79-.52.52-1.13.92-1.8 1.2s-1.39.42-2.11.42c-.73-.01-1.44-.15-2.11-.43-.67-.29-1.28-.7-1.79-1.21-1-1.04-1.55-2.43-1.54-3.87s.59-2.82 1.61-3.84 2.4-1.6 3.84-1.61c1.44-.02 2.83.54 3.87 1.54zm0 0 4.11-4.11zm4.11-4.11 3 3 3.5-3.5-3-3z" stroke="#000" stroke-linecap="round" stroke-linejoin="round" stroke-width="2"/></svg>