<svg height="24" viewBox="0 0 24 24" width="24" xmlns="http://www.w3.org/2000/svg"><g fill="none" stroke="#000" stroke-linejoin="round" stroke-width="2"><g stroke-linecap="round" stroke-width="5.11" transform="matrix(.15 0 0 .15 7.4 7.4)"><path d="m41.8 28.4c2.5-7.5.8-16.1-5.1-22.1-8.4-8.4-22-8.4-30.4 0s-8.4 22 0 30.4c6.9 6.9 17.4 8.1 25.6 3.6m9.9-11.9 19.9 19.9v13.4h-10.7m-16.1-21.5h-3m3 0v5.4m5.4 0h-5.4m5.4 0v5.4m5.4 0h-5.4m5.4 0v5.4m5.4 0h-5.4m5.4 5.4v-5.4"/><path d="m21.5 16.1c0 3-2.4 5.4-5.4 5.4s-5.4-2.4-5.4-5.4 2.4-5.4 5.4-5.4 5.4 2.4 5.4 5.4z"/></g><g stroke-width="2.74" transform="matrix(.37 0 0 .37 .3 .3)"><path d="m8.7.5h35.6l11 11v52h-46.6z"/><path d="m55.3 11.5h-11v-11"/></g></g></svg>