<svg enable-background="new 0 0 841.89 595.28" height="64" viewBox="0 0 60.4 64" width="60.4" xmlns="http://www.w3.org/2000/svg"><path d="m23.3 40.8-18.6 9.3c-.9.4-1.4 1.3-1.4 2.1 0 .9.5 1.7 1.4 2.1l18.6 9.4c1.2.8 3.6 0 3.6-2.2v-18.5c0-2.2-2.4-3-3.6-2.2z" fill="#06c299"/><path d="m37.2 40.8 18.6 9.3c.9.4 1.4 1.3 1.4 2.1 0 .9-.5 1.7-1.4 2.1l-18.6 9.4c-1.2.8-3.6 0-3.6-2.2v-18.5c0-2.2 2.4-3 3.6-2.2z" fill="#ff6161"/><path d="m56.8 20.8-18.6 9.3c-.9.4-1.4 1.3-1.4 2.1 0 .9.5 1.7 1.4 2.1l18.6 9.4c1.2.8 3.6 0 3.6-2.2v-18.5c0-2.2-2.4-3-3.6-2.2z" fill="#fbb014"/><path d="m37.2.3 18.6 9.3c.9.4 1.4 1.3 1.4 2.1 0 .9-.5 1.7-1.4 2.1l-18.6 9.3c-1.2.8-3.6 0-3.6-2.2v-18.4c0-2.2 2.4-3 3.6-2.2z" fill="#06c299"/><path d="m23.3.3-18.6 9.3c-.9.4-1.4 1.3-1.4 2.2s.5 1.7 1.4 2.1l18.6 9.3c1.2.8 3.6 0 3.6-2.2v-18.5c0-2.2-2.4-3-3.6-2.2z" fill="#4a8afb"/><path d="m3.6 20.9 18.6 9.3c.9.4 1.4 1.3 1.4 2.1 0 .9-.5 1.7-1.4 2.1l-18.6 9.4c-1.2.8-3.6 0-3.6-2.2v-18.5c0-2.2 2.4-3 3.6-2.2z" fill="#fbb014"/></svg>