<svg fill="none" height="24" viewBox="0 0 24 24" width="24" xmlns="http://www.w3.org/2000/svg"><g stroke="#000" stroke-linecap="round" stroke-linejoin="round" stroke-width="2"><path d="m12 22c5.52 0 10-4.48 10-10s-4.48-10-10-10-10 4.48-10 10 4.48 10 10 10z"/><path d="m12 16c2.21 0 4-1.79 4-4s-1.79-4-4-4-4 1.79-4 4 1.79 4 4 4z"/><path d="m4.93 4.93 4.24 4.24"/><path d="m14.83 14.83 4.24 4.24"/><path d="m14.83 9.17 4.24-4.24"/><path d="m14.83 9.17 3.53-3.53"/><path d="m4.93 19.07 4.24-4.24"/></g></svg>