<svg fill="none" height="24" viewBox="0 0 24 24" width="24" xmlns="http://www.w3.org/2000/svg"><g stroke="#000" stroke-linecap="round" stroke-linejoin="round" stroke-width="2"><path d="m10 13c.43.57.98 1.05 1.61 1.39.63.35 1.32.55 2.04.6.71.05 1.43-.05 2.1-.3s1.28-.64 1.79-1.15l3-3c.91-.94 1.41-2.21 1.4-3.52s-.53-2.56-1.46-3.49-2.18-1.45-3.49-1.46-2.58.49-3.52 1.4l-1.72 1.71"/><path d="m14 11c-.43-.57-.98-1.05-1.61-1.39-.63-.35-1.32-.55-2.04-.6-.71-.05-1.43.05-2.1.3s-1.28.64-1.79 1.15l-3 3c-.91.94-1.41 2.21-1.4 3.52s.53 2.56 1.46 3.49 2.18 1.45 3.49 1.46c1.31.02 2.58-.49 3.52-1.4l1.71-1.71"/></g></svg>