<svg fill="none" height="24" viewBox="0 0 24 24" width="24" xmlns="http://www.w3.org/2000/svg"><g stroke="#000" stroke-linecap="round" stroke-linejoin="round" stroke-width="2"><path d="m15 7h3c.66 0 1.31.13 1.91.38.61.25 1.16.62 1.63 1.08.46.47.83 1.02 1.08 1.63.25.6.38 1.25.38 1.91s-.13 1.31-.38 1.91c-.25.61-.62 1.16-1.08 1.63-.47.46-1.02.83-1.63 1.08-.6.25-1.25.38-1.91.38h-3m-6 0h-3c-.66 0-1.31-.13-1.91-.38-.61-.25-1.16-.62-1.63-1.08-.93-.94-1.46-2.21-1.46-3.54s.53-2.6 1.46-3.54c.94-.93 2.21-1.46 3.54-1.46h3"/><path d="m8 12h8"/></g></svg>