<svg fill="none" height="24" viewBox="0 0 24 24" width="24" xmlns="http://www.w3.org/2000/svg"><g stroke="#000" stroke-linecap="round" stroke-linejoin="round" stroke-width="2"><path d="m16 8c1.59 0 3.12.63 4.24 1.76 1.13 1.12 1.76 2.65 1.76 4.24v7h-4v-7c0-.53-.21-1.04-.59-1.41-.37-.38-.88-.59-1.41-.59s-1.04.21-1.41.59c-.38.37-.59.88-.59 1.41v7h-4v-7c0-1.59.63-3.12 1.76-4.24 1.12-1.13 2.65-1.76 4.24-1.76z"/><path d="m6 9h-4v12h4z"/><path d="m4 6c1.1 0 2-.9 2-2s-.9-2-2-2-2 .9-2 2 .9 2 2 2z"/></g></svg>