<svg height="64" viewBox="0 0 64 64" width="64" xmlns="http://www.w3.org/2000/svg"><g fill="none" stroke="#000" stroke-linejoin="round"><path d="m19.9 18 24.3-8c.9-.3 1.8.2 2.1 1.1l2.3 6.9m-35.2 0 13.6-9.3c.8-.5 1.8-.3 2.3.4l3.1 4.6m15.8 16h6.6c.1 0 .2.1.2.2v13.9c0 .1-.1.2-.2.2h-4.9m-11.1 0h-4.8c-.1 0-.2-.1-.2-.2v-13.9c0-.1.1-.2.2-.2h6.4m13.3 14.7v7.6c0 2-1.6 3.7-3.7 3.7h-37.3c-2 0-3.7-1.6-3.7-3.7v-30.2c0-2 1.6-3.7 3.7-3.7h37.3c2 0 3.7 1.6 3.7 3.7v7.6" stroke-width=".75" transform="matrix(1.33 0 0 1.33 -10.7 -10.7)"/><path d="m-51.4 42.8v-17c0-4.7 3.7-8.4 8.4-8.4s8.4 3.7 8.4 8.4v17m-26.8.8v-17.1c0-10.2 8.2-18.4 18.4-18.4s18.4 8.2 18.4 18.4v17.1m2.4-.1c1.7 0 3.2 1.4 3.2 3.2v34.7c0 1.7-1.4 3.2-3.2 3.2h-41.6c-1.7 0-3.2-1.4-3.2-3.2v-34.7c0-1.7 1.4-3.2 3.2-3.2z" stroke-width="3.24" transform="matrix(.31 0 0 .31 61.6 23.2)"/></g></svg>