<svg fill="none" height="24" viewBox="0 0 24 24" width="24" xmlns="http://www.w3.org/2000/svg" xmlns:xlink="http://www.w3.org/1999/xlink"><clipPath id="a"><path d="m0 0h24v24h-24z"/></clipPath><g clip-path="url(#a)" stroke="#000" stroke-linecap="round" stroke-linejoin="round" stroke-width="2"><path d="m1 1 22 22"/><path d="m15 9.34v-5.34c0-.74-.27-1.46-.77-2.01-.5-.56-1.19-.9-1.93-.98-.74-.07-1.48.13-2.08.57s-1.01 1.09-1.16 1.82m-.06 5.6v3c0 .59.18 1.17.51 1.67.33.49.79.87 1.34 1.1s1.15.29 1.73.17c.59-.12 1.12-.4 1.54-.82z"/><path d="m17 16.95c-.98 1-2.23 1.68-3.59 1.96-1.37.28-2.79.14-4.08-.39s-2.39-1.43-3.16-2.6c-.77-1.16-1.18-2.53-1.17-3.92v-2m14 0v2c0 .41-.04.82-.11 1.23"/><path d="m12 19v4"/><path d="m8 23h8"/></g></svg>