<svg fill="none" height="24" viewBox="0 0 24 24" width="24" xmlns="http://www.w3.org/2000/svg"><g stroke="#000" stroke-linecap="round" stroke-linejoin="round" stroke-width="2"><path d="m12 1c-.8 0-1.56.32-2.12.88s-.88 1.32-.88 2.12v8c0 .8.32 1.56.88 2.12s1.32.88 2.12.88 1.56-.32 2.12-.88.88-1.32.88-2.12v-8c0-.8-.32-1.56-.88-2.12s-1.32-.88-2.12-.88z"/><path d="m19 10v2c0 1.86-.74 3.64-2.05 4.95s-3.09 2.05-4.95 2.05-3.64-.74-4.95-2.05-2.05-3.09-2.05-4.95v-2"/><path d="m12 19v4"/><path d="m8 23h8"/></g></svg>