<svg fill="none" height="24" viewBox="0 0 24 24" width="24" xmlns="http://www.w3.org/2000/svg"><path d="m21 12.79c-.16 1.7-.8 3.32-1.84 4.68-1.05 1.35-2.46 2.38-4.06 2.96-1.61.58-3.35.69-5.02.32-1.67-.38-3.2-1.22-4.41-2.42-1.2-1.21-2.04-2.74-2.42-4.41-.37-1.67-.26-3.41.32-5.02.58-1.6 1.61-3.01 2.96-4.06 1.36-1.04 2.98-1.68 4.68-1.84-1 1.35-1.48 3.01-1.35 4.68.12 1.67.84 3.25 2.03 4.43 1.18 1.19 2.76 1.91 4.43 2.03 1.67.13 3.33-.35 4.68-1.35z" stroke="#000" stroke-linecap="round" stroke-linejoin="round" stroke-width="2"/></svg>