<svg fill="none" height="24" viewBox="0 0 24 24" width="24" xmlns="http://www.w3.org/2000/svg"><g stroke="#000" stroke-linecap="round" stroke-linejoin="round" stroke-width="2"><path d="m16.5 9.4-9-5.19"/><path d="m21 16v-8c0-.35-.09-.7-.27-1-.17-.3-.43-.55-.73-.73l-7-4c-.3-.18-.65-.27-1-.27s-.7.09-1 .27l-7 4c-.3.18-.56.43-.73.73-.18.3-.27.65-.27 1v8c0 .35.09.7.27 1 .17.3.43.55.73.73l7 4c.3.18.65.27 1 .27s.7-.09 1-.27l7-4c.3-.18.56-.43.73-.73.18-.3.27-.65.27-1z"/><path d="m3.27 6.96 8.73 5.05 8.73-5.05"/><path d="m12 22.08v-10.08"/></g></svg>