<svg fill="none" height="24" viewBox="0 0 24 24" width="24" xmlns="http://www.w3.org/2000/svg"><path d="m21.44 11.05-9.19 9.19c-1.13 1.13-2.65 1.76-4.24 1.76-1.6 0-3.12-.63-4.25-1.76s-1.76-2.65-1.76-4.25c0-1.59.63-3.11 1.76-4.24l9.19-9.19c.75-.75 1.77-1.17 2.83-1.17s2.08.42 2.83 1.17 1.17 1.77 1.17 2.83-.42 2.08-1.17 2.83l-9.2 9.19c-.37.38-.88.59-1.41.59-.54 0-1.04-.21-1.42-.59-.37-.38-.59-.88-.59-1.42 0-.53.22-1.03.59-1.41l8.49-8.48" stroke="#000" stroke-linecap="round" stroke-linejoin="round" stroke-width="2"/></svg>