<svg fill="none" height="24" viewBox="0 0 24 24" width="24" xmlns="http://www.w3.org/2000/svg" xmlns:xlink="http://www.w3.org/1999/xlink"><clipPath id="a"><path d="m0 0h24v24h-24z"/></clipPath><g clip-path="url(#a)" stroke="#000" stroke-linecap="round" stroke-linejoin="round" stroke-width="2"><path d="m5.19 12.81c-1.68-2.6-2.74-5.55-3.07-8.63-.02-.28.01-.56.1-.82s.23-.5.42-.71c.18-.2.41-.37.66-.48.26-.11.53-.17.81-.17h3c.49 0 .96.17 1.32.48.37.32.61.76.68 1.24.13.96.36 1.9.7 2.81.13.36.16.75.08 1.12s-.26.72-.53.99l-1.27 1.27m2.59 3.4c1.02 1.02 2.16 1.89 3.41 2.6l1.27-1.27c.27-.27.62-.45.99-.53s.76-.05 1.12.08c.91.34 1.85.57 2.81.7.48.07.92.31 1.24.68.31.36.49.83.48 1.32v3c0 .28-.06.55-.17.81-.11.25-.27.48-.48.67-.2.19-.44.33-.71.42-.26.09-.54.13-.82.1-3.08-.33-6.03-1.39-8.63-3.07-1.2-.76-2.32-1.66-3.33-2.67z"/><path d="m23 1-22 22"/></g></svg>