<svg fill="none" height="24" viewBox="0 0 24 24" width="24" xmlns="http://www.w3.org/2000/svg"><g stroke="#000" stroke-linecap="round" stroke-linejoin="round" stroke-width="2"><path d="m16 2v6h6"/><path d="m23 1-7 7"/><path d="m22 16.92v3c0 .28-.06.55-.17.81-.11.25-.27.48-.48.67-.2.19-.44.33-.71.42-.26.09-.54.13-.82.1-3.08-.33-6.03-1.39-8.63-3.07-2.42-1.54-4.46-3.58-6-6-1.69-2.61-2.74-5.58-3.07-8.67-.02-.28.01-.56.1-.82s.23-.5.42-.71c.18-.2.41-.37.66-.48.26-.11.53-.17.81-.17h3c.49 0 .96.17 1.32.48.37.32.61.76.68 1.24.13.96.36 1.9.7 2.81.13.36.16.75.08 1.12s-.26.72-.53.99l-1.27 1.27c1.42 2.5 3.5 4.58 6 6l1.27-1.27c.27-.27.62-.45.99-.53s.76-.05 1.12.08c.91.34 1.85.57 2.81.7.49.07.93.31 1.25.69.31.37.48.85.47 1.34z"/></g></svg>