<svg fill="none" height="24" viewBox="0 0 24 24" width="24" xmlns="http://www.w3.org/2000/svg"><g stroke="#000" stroke-linecap="round" stroke-linejoin="round" stroke-width="2"><path d="m21.21 15.89c-.64 1.5-1.63 2.83-2.9 3.86-1.26 1.03-2.76 1.74-4.37 2.05-1.6.32-3.26.24-4.82-.23s-2.99-1.31-4.15-2.46-2.02-2.57-2.51-4.13c-.49-1.55-.59-3.21-.29-4.82.3-1.6.99-3.11 2-4.39 1.02-1.28 2.33-2.29 3.83-2.94"/><path d="m22 12c0-1.31-.26-2.61-.76-3.83-.5-1.21-1.24-2.31-2.17-3.24s-2.03-1.67-3.24-2.17c-1.22-.5-2.52-.76-3.83-.76v10z"/></g></svg>