<svg height="86" viewBox="0 0 86 86" width="86" xmlns="http://www.w3.org/2000/svg"><g style="stroke:#000;stroke-width:2;fill:none;fill-rule:evenodd;stroke-linecap:round;stroke-linejoin:round" transform="translate(1 1)"><path d="m54 28.1c0 7.9-7.2 14.2-15.4 12.7-5.9-1.1-10.6-7.4-10.6-13.3v-3.9c0-5.9 4.7-12.3 10.6-13.3 8.2-1.5 15.4 4.8 15.4 12.7z"/><path d="m84 42c0 23.2-18.8 42-42 42s-42-18.8-42-42 18.8-42 42-42 42 18.8 42 42z"/><path d="m13 73c4.7-11.1 15.7-19 28.5-19s23.8 7.9 28.5 19"/></g></svg>