<svg fill="none" height="24" viewBox="0 0 24 24" width="24" xmlns="http://www.w3.org/2000/svg"><g stroke="#000" stroke-linecap="round" stroke-linejoin="round" stroke-width="2"><path d="m12 14c1.1 0 2-.9 2-2s-.9-2-2-2-2 .9-2 2 .9 2 2 2z"/><path d="m16.24 7.76c.56.56 1 1.22 1.3 1.95s.46 1.51.46 2.3c0 .78-.16 1.56-.46 2.29s-.74 1.39-1.3 1.95m-8.48-.01c-.56-.56-1-1.22-1.3-1.95s-.46-1.51-.46-2.29c0-.79.16-1.57.46-2.3s.74-1.39 1.3-1.95m11.31-2.82c1.87 1.88 2.93 4.42 2.93 7.07s-1.06 5.19-2.93 7.07m-14.14 0c-1.87-1.88-2.93-4.42-2.93-7.07s1.06-5.19 2.93-7.07"/></g></svg>