<svg fill="none" height="24" viewBox="0 0 24 24" width="24" xmlns="http://www.w3.org/2000/svg" xmlns:xlink="http://www.w3.org/1999/xlink"><clipPath id="a"><path d="m0 0h24v24h-24z"/></clipPath><g clip-path="url(#a)" stroke="#000" stroke-linecap="round" stroke-linejoin="round" stroke-width="2"><path d="m12 15c1.66 0 3-1.34 3-3s-1.34-3-3-3-3 1.34-3 3 1.34 3 3 3z"/><path d="m19.4 15c-.13.3-.17.64-.11.96.05.33.21.62.44.86l.06.06c.19.19.33.41.43.65s.16.5.16.77c0 .26-.06.52-.16.76s-.24.46-.43.65-.41.33-.65.43-.5.16-.76.16c-.27 0-.53-.06-.77-.16s-.46-.24-.65-.43l-.06-.06c-.24-.23-.54-.39-.86-.44-.32-.06-.66-.02-.96.11s-.55.34-.73.61c-.17.26-.27.58-.27.9v.17c0 .53-.21 1.04-.59 1.41-.37.38-.88.59-1.41.59s-1.04-.21-1.41-.59c-.38-.37-.59-.88-.59-1.41v-.09c-.01-.33-.11-.65-.31-.92-.19-.27-.46-.48-.77-.59-.3-.13-.64-.17-.96-.11-.32.05-.62.21-.86.44l-.06.06c-.19.19-.41.33-.65.43s-.5.16-.76.16c-.27 0-.53-.06-.77-.16s-.46-.24-.65-.43-.33-.41-.43-.65-.16-.5-.16-.76c0-.27.06-.53.16-.77s.24-.46.43-.65l.06-.06c.23-.24.39-.54.44-.86.06-.32.02-.66-.11-.96s-.34-.55-.61-.73c-.26-.17-.58-.27-.9-.27h-.17c-.53 0-1.04-.21-1.41-.59-.38-.37-.59-.88-.59-1.41s.21-1.04.59-1.41c.37-.38.88-.59 1.41-.59h.09c.33-.01.65-.11.92-.31.27-.19.48-.46.59-.77.13-.3.17-.64.11-.96-.05-.32-.21-.62-.44-.86l-.06-.06c-.19-.19-.33-.41-.43-.65s-.16-.5-.16-.76c0-.27.06-.53.16-.77s.24-.46.43-.65.41-.33.65-.43.5-.16.77-.16c.26 0 .52.06.76.16s.46.24.65.43l.06.06c.24.23.54.39.86.44.32.06.66.02.96-.11h.08c.3-.13.55-.34.73-.61.17-.26.27-.58.27-.9v-.17c0-.53.21-1.04.59-1.41.37-.38.88-.59 1.41-.59s1.04.21 1.41.59c.38.37.59.88.59 1.41v.09c0 .32.1.64.27.9.18.27.43.48.73.61s.64.17.96.11c.33-.05.62-.21.86-.44l.06-.06c.19-.19.41-.33.65-.43s.5-.16.77-.16c.26 0 .52.06.76.16s.46.24.65.43.33.41.43.65.16.5.16.77c0 .26-.06.52-.16.76s-.24.46-.43.65l-.06.06c-.23.24-.39.54-.44.86-.06.32-.02.66.11.96v.08c.13.3.34.55.61.73.26.17.58.27.9.27h.17c.53 0 1.04.21 1.41.59.38.37.59.88.59 1.41s-.21 1.04-.59 1.41c-.37.38-.88.59-1.41.59h-.09c-.32 0-.64.1-.9.27-.27.18-.48.43-.61.73z"/></g></svg>