<svg height="46" viewBox="0 0 40 46" width="40" xmlns="http://www.w3.org/2000/svg"><path d="m4.7 0c-2.6 0-4.7 2.1-4.7 4.7v30.9c0 2.6 2.1 4.7 4.7 4.7h25.9l-1.2-4.2 2.9 2.7 2.8 2.6 4.9 4.3v-41c0-2.6-2.1-4.7-4.7-4.7zm11.8 10.7.2.3c-4.1 1.2-6 3-6 3s.5-.3 1.3-.7c2.4-1.1 4.4-1.4 5.2-1.4h.4c4-.5 8 .2 11.5 2.1 0 0-1.8-1.7-5.7-2.9l.3-.4s3.1-.1 6.4 2.4c0 0 3.3 6 3.3 13.3 0 0-1.9 3.3-7 3.5 0 0-.8-1-1.5-1.9 3-.8 4.1-2.7 4.1-2.7-.9.6-1.8 1.1-2.6 1.3-1.1.5-2.2.8-3.3 1-2 .4-4 .4-5.9 0-1.1-.2-2.3-.6-3.4-1-.6-.2-1.1-.5-1.7-.8-.1 0-.1-.1-.2-.1 0 0-.1 0-.1-.1-.4-.2-.6-.4-.6-.4s1.1 1.8 4 2.7c-.7.9-1.5 1.9-1.5 1.9-5.1-.2-7-3.5-7-3.5 0-7.4 3.3-13.3 3.3-13.3 3.3-2.5 6.4-2.4 6.4-2.4z" fill-rule="evenodd"/></svg>