<svg height="42" viewBox="0 0 42 42" width="42" xmlns="http://www.w3.org/2000/svg"><path d="m1174 305c-11.6 0-21 9.6-21 21.5 0 9.5 6 17.6 14.4 20.4 1.1.2 1.4-.5 1.4-1s0-2.2 0-4c-5.3 1-6.6-1.3-7.1-2.5-.2-.6-1.3-2.5-2.2-3-.7-.4-1.8-1.4 0-1.4 1.7 0 2.8 1.6 3.2 2.2 1.9 3.3 4.9 2.3 6.1 1.8.2-1.4.7-2.3 1.3-2.9-4.7-.5-9.6-2.4-9.6-10.6 0-2.3.8-4.3 2.2-5.8-.2-.5-.9-2.7.2-5.7 0 0 1.8-.6 5.8 2.2 1.7-.5 3.5-.7 5.3-.7s3.6.2 5.3.7c4-2.8 5.8-2.2 5.8-2.2 1.2 3 .4 5.2.2 5.7 1.3 1.5 2.2 3.4 2.2 5.8 0 8.3-4.9 10.1-9.6 10.6.8.7 1.4 2 1.4 4v5.9c0 .6.4 1.2 1.4 1 4.2-1.4 7.8-4.2 10.4-7.9s3.9-8.1 3.9-12.6c0-11.9-9.4-21.5-21-21.5" fill-rule="evenodd" transform="translate(-1153 -305)"/></svg>