<svg height="42" viewBox="0 0 42 42" width="42" xmlns="http://www.w3.org/2000/svg"><path d="m1197 484c0 11.6-9.4 21-21 21s-21-9.4-21-21 9.4-21 21-21 21 9.4 21 21m-20.1-5.1c-2.1.9-6.2 2.6-12.4 5.3-1 .4-1.5.8-1.6 1.2-.1.6.7.9 1.8 1.2.2 0 .3.1.5.1 1.1.4 2.5.8 3.3.8.7 0 1.5-.3 2.3-.8 5.8-3.9 8.7-5.8 8.9-5.9.1 0 .3-.1.4 0s.1.3.1.4c-.1.3-3.2 3.3-4.9 4.8-.5.5-.9.8-.9.9-.2.2-.3.3-.5.5-1 1-1.8 1.7 0 2.9.9.6 1.6 1 2.2 1.5.8.5 1.5 1 2.5 1.7.2.2.5.3.7.5.9.6 1.7 1.2 2.6 1.1.6-.1 1.2-.6 1.4-2.2.7-3.7 2.1-11.8 2.4-15.2 0-.3 0-.6 0-.8s-.1-.4-.3-.6c-.3-.2-.6-.3-.8-.2-.8 0-2 .4-7.9 2.9" fill-rule="evenodd" transform="translate(-1155 -463)"/></svg>