<svg height="42" viewBox="0 0 42 42" width="42" xmlns="http://www.w3.org/2000/svg"><path d="m1175 384c-11.6 0-21 9.4-21 21s9.4 21 21 21 21-9.4 21-21-9.4-21-21-21m10.2 15.4v.7c0 6.8-5.3 14.7-14.9 14.7-3 0-5.7-.9-8.1-2.3.4 0 .8.1 1.3.1 2.5 0 4.7-.8 6.5-2.2-2.3 0-4.2-1.5-4.9-3.6.8.1 1.5.1 2.4-.1-1.2-.2-2.3-.9-3-1.8-.8-.9-1.2-2.1-1.2-3.3v-.1c.7.4 1.5.6 2.4.7-.7-.5-1.3-1.1-1.7-1.9s-.6-1.6-.6-2.4c0-1 .3-1.8.7-2.6 1.3 1.6 3 2.9 4.8 3.8 1.9.9 3.9 1.5 6 1.6-.7-3.5 1.9-6.4 5.1-6.4 1.5 0 2.9.6 3.8 1.6 1.2-.2 2.3-.7 3.3-1.2-.4 1.2-1.2 2.2-2.3 2.8 1.1-.1 2.1-.4 3-.8-.7 1-1.6 2-2.6 2.7" fill-rule="evenodd" transform="translate(-1154 -384)"/></svg>