<svg fill="none" height="24" viewBox="0 0 24 24" width="24" xmlns="http://www.w3.org/2000/svg" xmlns:xlink="http://www.w3.org/1999/xlink"><clipPath id="a"><path d="m0 0h24v24h-24z"/></clipPath><g clip-path="url(#a)"><path d="m14 14.76v-11.26c0-.66-.26-1.3-.73-1.77s-1.11-.73-1.77-.73-1.3.26-1.77.73-.73 1.11-.73 1.77v11.26c-.8.54-1.41 1.32-1.74 2.23-.32.9-.35 1.89-.07 2.82.28.92.85 1.73 1.63 2.31.77.57 1.71.88 2.68.88s1.91-.31 2.68-.88c.78-.58 1.35-1.39 1.63-2.31.28-.93.25-1.92-.07-2.82-.33-.91-.94-1.69-1.74-2.23z" stroke="#000" stroke-linecap="round" stroke-linejoin="round" stroke-width="2"/></g></svg>