<svg fill="none" height="24" viewBox="0 0 24 24" width="24" xmlns="http://www.w3.org/2000/svg"><path d="m14.7 6.3c-.18.19-.29.44-.29.7s.11.51.29.7l1.6 1.6c.19.18.44.29.7.29s.51-.11.7-.29l3.77-3.77c.5 1.11.66 2.35.44 3.55s-.8 2.3-1.66 3.17c-.87.86-1.97 1.44-3.17 1.66s-2.44.06-3.55-.44l-6.91 6.91c-.4.4-.94.62-1.5.62s-1.1-.22-1.5-.62-.62-.94-.62-1.5.22-1.1.62-1.5l6.91-6.91c-.5-1.11-.65-2.35-.44-3.55.22-1.2.8-2.3 1.66-3.17.87-.86 1.97-1.44 3.17-1.66 1.2-.21 2.44-.06 3.55.44l-3.76 3.76z" stroke="#000" stroke-linecap="round" stroke-linejoin="round" stroke-width="2"/></svg>