<svg fill="none" height="24" viewBox="0 0 24 24" width="24" xmlns="http://www.w3.org/2000/svg" xmlns:xlink="http://www.w3.org/1999/xlink"><clipPath id="a"><path d="m0 0h24v24h-24z"/></clipPath><g clip-path="url(#a)" stroke="#000" stroke-linecap="round" stroke-linejoin="round" stroke-width="2"><path d="m16 16-4-4-4 4"/><path d="m12 12v9"/><path d="m20.39 18.39c.98-.53 1.75-1.37 2.19-2.39s.54-2.16.26-3.23c-.27-1.08-.9-2.03-1.77-2.72-.88-.68-1.96-1.05-3.07-1.05h-1.26c-.3-1.17-.87-2.26-1.65-3.18s-1.76-1.65-2.87-2.14-2.31-.72-3.52-.67c-1.21.04-2.39.36-3.46.93s-1.99 1.37-2.7 2.34c-.72.98-1.2 2.11-1.42 3.3-.21 1.19-.16 2.41.17 3.57.32 1.17.91 2.24 1.71 3.15"/><path d="m16 16-4-4-4 4"/></g></svg>