<svg fill="none" height="24" viewBox="0 0 24 24" width="24" xmlns="http://www.w3.org/2000/svg"><g stroke="#000" stroke-linecap="round" stroke-linejoin="round" stroke-width="2"><path d="m17 21v-2c0-1.06-.42-2.08-1.17-2.83s-1.77-1.17-2.83-1.17h-8c-1.06 0-2.08.42-2.83 1.17s-1.17 1.77-1.17 2.83v2"/><path d="m9 11c2.21 0 4-1.79 4-4s-1.79-4-4-4-4 1.79-4 4 1.79 4 4 4z"/><path d="m23 21v-2c0-.89-.3-1.75-.84-2.45s-1.3-1.2-2.16-1.42"/><path d="m16 3.13c.86.22 1.62.72 2.17 1.42.54.7.84 1.57.84 2.45 0 .89-.3 1.76-.84 2.46-.55.7-1.31 1.2-2.17 1.42"/></g></svg>