<svg fill="none" height="24" viewBox="0 0 24 24" width="24" xmlns="http://www.w3.org/2000/svg" xmlns:xlink="http://www.w3.org/1999/xlink"><clipPath id="a"><path d="m0 0h24v24h-24z"/></clipPath><g clip-path="url(#a)" stroke="#000" stroke-linecap="round" stroke-linejoin="round" stroke-width="2"><path d="m10.66 5h3.34c.53 0 1.04.21 1.41.59.38.37.59.88.59 1.41v3.34l1 1 6-4.34v10m-7-1v1c0 .53-.21 1.04-.59 1.41-.37.38-.88.59-1.41.59h-11c-.53 0-1.04-.21-1.41-.59-.38-.37-.59-.88-.59-1.41v-10c0-.53.21-1.04.59-1.41.37-.38.88-.59 1.41-.59h2z"/><path d="m1 1 22 22"/></g></svg>