<svg height="25" viewBox="0 0 25 25" width="25" xmlns="http://www.w3.org/2000/svg"><g fill="none" stroke="#000"><circle cx="16.5" cy="13.2" r="1.4" stroke-linecap="round"/><g fill="none" stroke="#000" stroke-width="1.18" transform="matrix(.85 0 0 .85 1.9 .1)"><path d="m2.6 5.4h1.8z"/><path d="m14.8 12c-.5 0-1.2.4-1.2 1.2v4.2c0 .7.6 1.3 1.3 1.3h8.5c.3 0 .5-.2.5-.5v-5.6c0-.3-.2-.5-.5-.5z"/><path d="m2.6 5.4c-1.1 0-2 1-2 2v15.4c0 .9.7 2 2 2h19c.6 0 2-.5 2-2v-4.2h-.9v4.2c0 .6-.5 1-1 1h-19c-.5 0-1-.5-1-1v-15.4c0-.5.4-1 1-1 6.3-.1 12.6-.1 18.9-.1.5 0 1 .4 1 1v4.8h1v-4.7c0-.9-.7-2-2-2z"/><path d="m13.1 2.9c-.3.1-.7.2-1 .3 0 0 0 .1.1.1l1-.4z"/><path d="m5.2 5.5h3l10.5-3.5h.1c.1 0 .3.1.3.2l1.1 3.3h1.1l-1.1-3.6c-.3-.6-1-.9-1.4-.8h-.2c-3.2 1.1-7.6 2.6-13.4 4.4z"/><path d="m10.4.3c-.2 0-.5.1-.7.2l-7.1 4.9h1.8c.4-.2 5.8-4 5.9-4.1h.1.1c.1 0 .1 0 .2.1 0 0 1.2 1.7 1.4 2 .4-.1.7-.2 1-.3l-1.6-2.4c-.2-.3-.6-.5-1.1-.4z"/></g></g></svg>