<svg height="90" viewBox="0 0 87 90" width="87" xmlns="http://www.w3.org/2000/svg"><g fill="none" stroke="#000" stroke-linecap="round" stroke-linejoin="round" stroke-width="2.3"><path d="m83.2 44.5v-18.3c0-3.9-3.2-5.9-5.7-5.9l-70.3-.1c-3.4 0-6.1 2.5-6.1 6v56.6c-.1 3.6 2.8 6.3 6.2 6.2h69.8c3.3.2 6.2-2.5 6.1-6.1v-15.7" stroke-width="2"/><path d="m50.1 44.5h35.6v22.7h-35.5c-1.1 0-1.6-1-1.6-1.7v-19.4c0-.7.6-1.6 1.5-1.6z"/><ellipse cx="61.3" cy="55.8" fill="#d6fe52" rx="6.5" ry="6.5"/></g><path d="m62.6 15.5-12.2 4h6.9l5.9-1.9c.7-.2 1-.8.8-1.4s-.8-.9-1.4-.7z"/><path d="m64.6 9.4-31.5 10.3h7.3l24-7.8 2.5 7.8h2.2l-3.1-9.6c-.2-.6-.8-.9-1.4-.7z"/><path d="m66.3 3.4c-14.3 4.7-28.7 9.2-43 13.9l10.7-7.4 2.4 3.7 2-.8-3.3-4.9c-.3-.5-1-.6-1.5-.3l-17.5 12.1h7l43.8-14.3c1.2-.3 1.9.5 2 1l4.4 13.3h2.4l-4.6-13.8c-1.3-2.4-3-3-4.8-2.5z"/><path d="m33.5.7-27.2 18.8h3.8l24.6-17c.5-.4 1.7-.6 2.2.4l6 8.7 2-.8-6.2-9.1c-.9-1.4-3.1-2.4-5.2-1z"/></svg>