<svg fill="none" height="24" viewBox="0 0 24 24" width="24" xmlns="http://www.w3.org/2000/svg"><g stroke="#000" stroke-linecap="round" stroke-linejoin="round" stroke-width="2"><path d="m12 19c3.87 0 7-3.13 7-7s-3.13-7-7-7-7 3.13-7 7 3.13 7 7 7z"/><path d="m12 9v3l1.5 1.5"/><path d="m16.51 17.35-.35 3.83c-.04.5-.27.96-.65 1.3-.37.34-.85.52-1.35.52h-4.33c-.5 0-.98-.18-1.35-.52s-.6-.8-.65-1.3l-.35-3.83m.01-10.7.35-3.83c.05-.5.27-.96.64-1.3.37-.33.85-.52 1.35-.52h4.35c.5 0 .98.18 1.35.52.38.34.61.8.65 1.3l.35 3.83"/></g></svg>