<svg fill="none" height="24" viewBox="0 0 24 24" width="24" xmlns="http://www.w3.org/2000/svg" xmlns:xlink="http://www.w3.org/1999/xlink"><clipPath id="a"><path d="m0 0h24v24h-24z"/></clipPath><g clip-path="url(#a)" stroke="#000" stroke-linecap="round" stroke-linejoin="round" stroke-width="2"><path d="m1 1 22 22"/><path d="m16.72 11.06c.82.4 1.58.9 2.28 1.49"/><path d="m5 12.55c1.48-1.24 3.27-2.06 5.17-2.39"/><path d="m10.71 5.05c2.14-.17 4.3.09 6.34.77s3.92 1.76 5.53 3.18"/><path d="m1.42 9c1.39-1.23 2.98-2.2 4.7-2.88"/><path d="m8.53 16.11c1.02-.72 2.23-1.11 3.48-1.11 1.24 0 2.46.39 3.47 1.11"/><path d="m12 20h.01"/></g></svg>