<svg fill="none" height="24" viewBox="0 0 24 24" width="24" xmlns="http://www.w3.org/2000/svg"><path d="m17.73 7.73c.29-.29.65-.5 1.04-.62.4-.12.81-.14 1.21-.06.41.08.78.26 1.1.52s.57.59.73.97c.15.38.21.79.17 1.2s-.18.81-.4 1.15c-.23.34-.54.62-.9.81-.36.2-.77.3-1.18.3h-17.5m7.59-7.41c.23-.23.52-.41.83-.5.32-.1.65-.12.98-.05.32.06.62.2.88.41.25.21.45.48.58.79.12.3.17.63.14.96s-.15.64-.33.92c-.19.27-.43.49-.72.65-.3.15-.62.23-.95.23h-9zm3 14.82c.23.23.52.41.83.5.32.1.65.12.98.05.32-.06.62-.2.88-.41.25-.21.45-.48.58-.79.12-.3.17-.63.14-.96s-.15-.64-.33-.92c-.19-.27-.43-.49-.72-.65-.3-.15-.62-.23-.95-.23h-12z" stroke="#000" stroke-linecap="round" stroke-linejoin="round" stroke-width="2"/></svg>