<svg fill="none" height="24" viewBox="0 0 24 24" width="24" xmlns="http://www.w3.org/2000/svg"><g stroke="#000" stroke-linecap="round" stroke-linejoin="round" stroke-width="2"><path d="m22.54 6.42c-.12-.47-.36-.91-.7-1.26s-.77-.61-1.24-.74c-1.72-.42-8.6-.42-8.6-.42s-6.88 0-8.6.46c-.47.13-.9.39-1.24.74s-.58.79-.7 1.26c-.32 1.75-.47 3.52-.46 5.29-.01 1.79.14 3.57.46 5.33.13.46.38.88.72 1.21.34.34.76.58 1.22.71 1.72.46 8.6.46 8.6.46s6.88 0 8.6-.46c.47-.13.9-.39 1.24-.74s.58-.79.7-1.26c.31-1.73.47-3.49.46-5.25.01-1.79-.14-3.57-.46-5.33z"/><path d="m9.75 15.02 5.75-3.27-5.75-3.27z"/></g></svg>