<svg xmlns="http://www.w3.org/2000/svg"><defs><symbol id="arrow" fill="none" viewBox="0 0 20 25"><path d="m18 14-9 9m-9-9 9 9m0-23v23" fill="none" stroke="#000" stroke-linecap="round" stroke-linejoin="round" transform="translate(1 1)"/></symbol><symbol id="bubble-small" fill="none" viewBox="0 0 24 24"><g fill="none" stroke="#000"><g stroke-linecap="round"><path d="m6.5 15.4h10.9"/><path d="m6.5 12.4h10.9"/><path d="m6.5 9.4h10.9"/></g><path d="m6.1 21.9-5.6 1.6 1.8-5.4c-1.1-1.8-1.8-3.9-1.8-6.1 0-6.3 5.2-11.5 11.5-11.5s11.5 5.2 11.5 11.5-5.2 11.5-11.5 11.5c-2.1 0-4.2-.6-5.9-1.6z"/></g></symbol><symbol id="cancel"  viewBox="0 0 18 18"><path d="m9 1v16m8-8h-16" stroke="#000" stroke-linecap="round" stroke-width="2" transform="matrix(.71 .71 -.71 .71 9 -3.7)"/></symbol><symbol id="chip" fill="url(#b)" viewBox="0 0 14 10"><linearGradient id="a-chip" gradientUnits="userSpaceOnUse" x1="-1.87" x2="14" y1="-.65" y2="10"><stop offset="0" stop-opacity=".69"/><stop offset=".21760862" stop-color="#fff" stop-opacity=".61"/><stop offset="1" stop-opacity=".53"/></linearGradient><linearGradient id="b-chip" gradientUnits="userSpaceOnUse" x1="14" x2="0" y1="10" y2="0"><stop offset="0" stop-color="#8aa1a2"/><stop offset="1" stop-color="#f7fbfb"/></linearGradient><rect fill="url(#b-chip)" height="10" ry="1.53" width="14"/><path d="m7 6.95v3.05m0-6.95v-3.05m2.66 5h4.34m-4.34 1.95 2.03 1.17h2.31m-4.34-5.07 2.03-1.17h2.31m-9.66 3.12h-4.34m4.34 1.95-2.03 1.17h-2.31m4.34-5.07-2.03-1.17h-2.31m4.34 1.17h5.32v3.9h-5.32z" fill="none" stroke="url(#a-chip)" stroke-linejoin="round" stroke-opacity=".56" stroke-width=".25"/></symbol><symbol id="edit" fill="none" viewBox="0 0 24 24"><g stroke="#000" stroke-linecap="round" stroke-linejoin="round" stroke-width="2"><path d="m11 4h-7c-.53 0-1.04.21-1.41.59-.38.37-.59.88-.59 1.41v14c0 .53.21 1.04.59 1.41.37.38.88.59 1.41.59h14c.53 0 1.04-.21 1.41-.59.38-.37.59-.88.59-1.41v-7"/><path d="m18.5 2.5c.4-.4.94-.62 1.5-.62s1.1.22 1.5.62.62.94.62 1.5-.22 1.1-.62 1.5l-9.5 9.5-4 1 1-4z"/></g></symbol><symbol id="eye-off" fill="none" viewBox="0 0 24 24"><clipPath id="a-eye-off"><path d="m0 0h24v24h-24z"/></clipPath><g clip-path="url(#a-eye-off)" stroke="#000" stroke-linecap="round" stroke-linejoin="round" stroke-width="2"><path d="m9.9 4.24c.69-.16 1.39-.24 2.1-.24 7 0 11 8 11 8-.61 1.14-1.33 2.2-2.16 3.19m-6.72-1.07c-.27.29-.61.53-.97.7-.37.16-.77.25-1.17.25-.4.01-.8-.06-1.18-.21-.37-.15-.71-.38-1-.66-.28-.29-.51-.63-.66-1-.15-.38-.22-.78-.21-1.18 0-.4.09-.8.25-1.17.17-.36.41-.7.7-.97m8.06 8.06c-1.71 1.3-3.79 2.02-5.94 2.06-7 0-11-8-11-8 1.24-2.32 2.97-4.34 5.06-5.94z"/><path d="m1 1 22 22"/></g></symbol><symbol id="eye" fill="none" viewBox="0 0 24 24"><g stroke="#000" stroke-linecap="round" stroke-linejoin="round" stroke-width="2"><path d="m1 12s4-8 11-8 11 8 11 8-4 8-11 8-11-8-11-8z"/><path d="m12 15c1.66 0 3-1.34 3-3s-1.34-3-3-3-3 1.34-3 3 1.34 3 3 3z"/></g></symbol><symbol id="key-small" fill="none" viewBox="0 0 24 24"><g fill="none" stroke="#000" stroke-linecap="round" stroke-linejoin="round" stroke-width="2.68" transform="matrix(.37 0 0 .37 .5 .5)"><path d="m41.8 28.4c2.5-7.5.8-16.1-5.1-22.1-8.4-8.4-22-8.4-30.4 0s-8.4 22 0 30.4c6.9 6.9 17.4 8.1 25.6 3.6m9.9-11.9 19.9 19.9v13.4h-10.7m-16.1-21.5h-3m3 0v5.4m5.4 0h-5.4m5.4 0v5.4m5.4 0h-5.4m5.4 0v5.4m5.4 0h-5.4m5.4 5.4v-5.4"/><path d="m21.5 16.1c0 3-2.4 5.4-5.4 5.4s-5.4-2.4-5.4-5.4 2.4-5.4 5.4-5.4 5.4 2.4 5.4 5.4z"/></g></symbol><symbol id="keystore-small" fill="none" viewBox="0 0 24 24"><g fill="none" stroke="#000" stroke-linejoin="round" stroke-width="2"><g stroke-linecap="round" stroke-width="5.11" transform="matrix(.15 0 0 .15 7.4 7.4)"><path d="m41.8 28.4c2.5-7.5.8-16.1-5.1-22.1-8.4-8.4-22-8.4-30.4 0s-8.4 22 0 30.4c6.9 6.9 17.4 8.1 25.6 3.6m9.9-11.9 19.9 19.9v13.4h-10.7m-16.1-21.5h-3m3 0v5.4m5.4 0h-5.4m5.4 0v5.4m5.4 0h-5.4m5.4 0v5.4m5.4 0h-5.4m5.4 5.4v-5.4"/><path d="m21.5 16.1c0 3-2.4 5.4-5.4 5.4s-5.4-2.4-5.4-5.4 2.4-5.4 5.4-5.4 5.4 2.4 5.4 5.4z"/></g><g stroke-width="2.74" transform="matrix(.37 0 0 .37 .3 .3)"><path d="m8.7.5h35.6l11 11v52h-46.6z"/><path d="m55.3 11.5h-11v-11"/></g></g></symbol><symbol id="metamask" fill="#e2761b" viewBox="0 0 318.6 318.6"><g stroke-linecap="round" stroke-linejoin="round"><path d="m274.1 35.5-99.5 73.9 18.4-43.6z" fill="#e2761b" stroke="#e2761b"/><path d="m44.4 35.5 98.7 74.6-17.5-44.3zm193.9 171.3-26.5 40.6 56.7 15.6 16.3-55.3zm-204.4.9 16.2 55.3 56.7-15.6-26.5-40.6z" fill="#e4761b" stroke="#e4761b"/><path d="m103.6 138.2-15.8 23.9 56.3 2.5-2-60.5zm111.3 0-39-34.8-1.3 61.2 56.2-2.5zm-108.1 109.2 33.8-16.5-29.2-22.8zm71.1-16.5 33.9 16.5-4.7-39.3z" fill="#e4761b" stroke="#e4761b"/><path d="m211.8 247.4-33.9-16.5 2.7 22.1-.3 9.3zm-105 0 31.5 14.9-.2-9.3 2.5-22.1z" fill="#d7c1b3" stroke="#d7c1b3"/><path d="m138.8 193.5-28.2-8.3 19.9-9.1zm40.9 0 8.3-17.4 20 9.1z" fill="#233447" stroke="#233447"/><path d="m106.8 247.4 4.8-40.6-31.3.9zm100.2-40.6 4.8 40.6 26.5-39.7zm23.8-44.7-56.2 2.5 5.2 28.9 8.3-17.4 20 9.1zm-120.2 23.1 20-9.1 8.2 17.4 5.3-28.9-56.3-2.5z" fill="#cd6116" stroke="#cd6116"/><path d="m87.8 162.1 23.6 46-.8-22.9zm120.3 23.1-1 22.9 23.7-46zm-64-20.6-5.3 28.9 6.6 34.1 1.5-44.9zm30.5 0-2.7 18 1.2 45 6.7-34.1z" fill="#e4751f" stroke="#e4751f"/><path d="m179.8 193.5-6.7 34.1 4.8 3.3 29.2-22.8 1-22.9zm-69.2-8.3.8 22.9 29.2 22.8 4.8-3.3-6.6-34.1z" fill="#f6851b" stroke="#f6851b"/><path d="m180.3 262.3.3-9.3-2.5-2.2h-37.7l-2.3 2.2.2 9.3-31.5-14.9 11 9 22.3 15.5h38.3l22.4-15.5 11-9z" fill="#c0ad9e" stroke="#c0ad9e"/><path d="m177.9 230.9-4.8-3.3h-27.7l-4.8 3.3-2.5 22.1 2.3-2.2h37.7l2.5 2.2z" fill="#161616" stroke="#161616"/><path d="m278.3 114.2 8.5-40.8-12.7-37.9-96.2 71.4 37 31.3 52.3 15.3 11.6-13.5-5-3.6 8-7.3-6.2-4.8 8-6.1zm-246.5-40.8 8.5 40.8-5.4 4 8 6.1-6.1 4.8 8 7.3-5 3.6 11.5 13.5 52.3-15.3 37-31.3-96.2-71.4z" fill="#763d16" stroke="#763d16"/><path d="m267.2 153.5-52.3-15.3 15.9 23.9-23.7 46 31.2-.4h46.5zm-163.6-15.3-52.3 15.3-17.4 54.2h46.4l31.1.4-23.6-46zm71 26.4 3.3-57.7 15.2-41.1h-67.5l15 41.1 3.5 57.7 1.2 18.2.1 44.8h27.7l.2-44.8z" fill="#f6851b" stroke="#f6851b"/></g></symbol><symbol id="moon" fill="none" viewBox="0 0 24 24"><path d="m21 12.79c-.16 1.7-.8 3.32-1.84 4.68-1.05 1.35-2.46 2.38-4.06 2.96-1.61.58-3.35.69-5.02.32-1.67-.38-3.2-1.22-4.41-2.42-1.2-1.21-2.04-2.74-2.42-4.41-.37-1.67-.26-3.41.32-5.02.58-1.6 1.61-3.01 2.96-4.06 1.36-1.04 2.98-1.68 4.68-1.84-1 1.35-1.48 3.01-1.35 4.68.12 1.67.84 3.25 2.03 4.43 1.18 1.19 2.76 1.91 4.43 2.03 1.67.13 3.33-.35 4.68-1.35z" stroke="#000" stroke-linecap="round" stroke-linejoin="round" stroke-width="2"/></symbol><symbol id="refresh-cw" fill="none" viewBox="0 0 24 24"><g stroke="#000" stroke-linecap="round" stroke-linejoin="round" stroke-width="2"><path d="m23 4v6h-6"/><path d="m1 20v-6h6"/><path d="m3.51 9c.51-1.43 1.37-2.71 2.51-3.72 1.13-1.01 2.51-1.72 3.99-2.06 1.48-.33 3.02-.29 4.49.14 1.46.42 2.79 1.2 3.86 2.28l4.64 4.36m-22 4 4.64 4.36c1.07 1.08 2.4 1.86 3.86 2.28 1.47.43 3.01.47 4.49.14 1.48-.34 2.86-1.05 3.99-2.06 1.14-1.01 2-2.29 2.51-3.72"/></g></symbol><symbol id="spinner" fill="url(#a)" viewBox="0 0 24 24"><radialGradient id="a-spinner" cx="12" cy="7" gradientTransform="matrix(0 3 -3.06 0 33.42 -34)" gradientUnits="userSpaceOnUse" r="6"><stop offset="0" stop-opacity=".69"/><stop offset="1" stop-opacity="0"/></radialGradient><path d="m12 0a12 12 0 0 0 -12 12 12 12 0 0 0 12 12v-4a8 8 0 0 1 -8-8 8 8 0 0 1 8-8z" fill="url(#a-spinner)"/><circle cx="12" cy="2" fill="#010101" r="2"/></symbol><symbol id="sun" fill="none" viewBox="0 0 24 24"><clipPath id="a-sun"><path d="m0 0h24v24h-24z"/></clipPath><g clip-path="url(#a-sun)" stroke="#000" stroke-linecap="round" stroke-linejoin="round" stroke-width="2"><path d="m12 17c2.76 0 5-2.24 5-5s-2.24-5-5-5-5 2.24-5 5 2.24 5 5 5z"/><path d="m12 1v2"/><path d="m12 21v2"/><path d="m4.22 4.22 1.42 1.42"/><path d="m18.36 18.36 1.42 1.42"/><path d="m1 12h2"/><path d="m21 12h2"/><path d="m4.22 19.78 1.42-1.42"/><path d="m18.36 5.64 1.42-1.42"/></g></symbol><symbol id="trash" fill="none" viewBox="0 0 24 24"><g stroke="#000" stroke-linecap="round" stroke-linejoin="round" stroke-width="2"><path d="m3 6h2 16"/><path d="m8 6v-2c0-.53.21-1.04.59-1.41.37-.38.88-.59 1.41-.59h4c.53 0 1.04.21 1.41.59.38.37.59.88.59 1.41v2m3 0v14c0 .53-.21 1.04-.59 1.41-.37.38-.88.59-1.41.59h-10c-.53 0-1.04-.21-1.41-.59-.38-.37-.59-.88-.59-1.41v-14z"/></g></symbol><symbol id="wallet-small" fill="none" viewBox="0 0 25 25"><g fill="none" stroke="#000"><circle cx="16.5" cy="13.2" r="1.4" stroke-linecap="round"/><g fill="none" stroke="#000" stroke-width="1.18" transform="matrix(.85 0 0 .85 1.9 .1)"><path d="m2.6 5.4h1.8z"/><path d="m14.8 12c-.5 0-1.2.4-1.2 1.2v4.2c0 .7.6 1.3 1.3 1.3h8.5c.3 0 .5-.2.5-.5v-5.6c0-.3-.2-.5-.5-.5z"/><path d="m2.6 5.4c-1.1 0-2 1-2 2v15.4c0 .9.7 2 2 2h19c.6 0 2-.5 2-2v-4.2h-.9v4.2c0 .6-.5 1-1 1h-19c-.5 0-1-.5-1-1v-15.4c0-.5.4-1 1-1 6.3-.1 12.6-.1 18.9-.1.5 0 1 .4 1 1v4.8h1v-4.7c0-.9-.7-2-2-2z"/><path d="m13.1 2.9c-.3.1-.7.2-1 .3 0 0 0 .1.1.1l1-.4z"/><path d="m5.2 5.5h3l10.5-3.5h.1c.1 0 .3.1.3.2l1.1 3.3h1.1l-1.1-3.6c-.3-.6-1-.9-1.4-.8h-.2c-3.2 1.1-7.6 2.6-13.4 4.4z"/><path d="m10.4.3c-.2 0-.5.1-.7.2l-7.1 4.9h1.8c.4-.2 5.8-4 5.9-4.1h.1.1c.1 0 .1 0 .2.1 0 0 1.2 1.7 1.4 2 .4-.1.7-.2 1-.3l-1.6-2.4c-.2-.3-.6-.5-1.1-.4z"/></g></g></symbol></defs></svg>
