<svg fill="none" height="33" viewBox="0 0 207 33" width="207" xmlns="http://www.w3.org/2000/svg"><g fill="#fff"><path d="m48.0899 4.94911v-4.8670788h-40.39671c-4.03237 0-7.300612 3.2682388-7.300612 7.3006088v17.52146c0 4.0324 3.268242 7.3006 7.300612 7.3006h21.90181c4.3512 0 8.2984-1.7399 11.1943-4.5604v4.5604h7.3006v-16.0613h-23.8487v4.8671h15.4335c-1.813 3.7403-5.6506 6.3272-10.0797 6.3272h-21.90181v-22.38859z"/><path d="m92.137.0820312h-33.0962c-4.0323 0-7.3006 3.2682388-7.3006 7.3006088v17.52146c0 4.0324 3.2683 7.3006 7.3006 7.3006h33.0962c4.0323 0 7.3006-3.2682 7.3006-7.3006v-17.52146c0-4.03237-3.2683-7.3006088-7.3006-7.3006088zm0 27.2556688h-33.0962v-22.38859h33.0962z"/><path d="m140.148.0820312h-37.06v4.8670788h37.097c3.032 0 5.616 2.35324 5.731 5.38059.119 3.183-2.436 5.8137-5.593 5.8137h-29.932c-4.032 0-7.301 3.2682-7.301 7.3006v8.7607h7.301v-11.1942h29.932c5.839 0 10.562-4.7819 10.462-10.6419-.095-5.73828-4.896-10.2865688-10.634-10.2865688z"/><path d="m132.709 21.0107 11.194 11.1943h6.882l-11.194-11.1943z"/><path d="m207 .0820312h-7.301v32.1226688h7.301z"/><path d="m178.827 14.9753 5.342-5.34163 9.554-9.5516388h-6.542l-25.445 25.4450688v-25.4450688h-7.3v32.1226688h1.55 5.614l2.56-2.5625 10.041-10.0408z"/><path d="m186.839 32.205h9.318l-17.33-17.2294-4.626 4.6261z"/></g></svg>