<svg fill="none" height="47" viewBox="0 0 72 47" width="72" xmlns="http://www.w3.org/2000/svg" xmlns:xlink="http://www.w3.org/1999/xlink"><linearGradient id="a" gradientUnits="userSpaceOnUse" x1="41.665" x2="66.8059" y1="4.86271" y2="4.86271"><stop offset="0" stop-color="#fff" stop-opacity="0"/><stop offset=".97" stop-color="#fff" stop-opacity=".8"/></linearGradient><path d="m66.8059.00292969h-25.1409v9.72199031h25.1409z" fill="url(#a)"/><g fill="#fff"><path d="m66.7597 9.72442c2.6853 0 4.8622-2.17689 4.8622-4.86222 0-2.68532-2.1769-4.8622-4.8622-4.8622-2.6854 0-4.8622 2.17688-4.8622 4.8622 0 2.68533 2.1768 4.86222 4.8622 4.86222z"/><path d="m61.8658 46.2839v-23.3351l-17.7502 15.3507c-5.8454 5.0545-13.3188 7.8384-21.0477 7.8384-6.1763 0-11.9827-2.4189-16.35092-6.8114-4.36577-4.3926-6.7530706-10.2136-6.7165675-16.3899.0730061-12.6447 10.5420875-22.93367031 23.3375875-22.93367031h19.0011c2.6988 0 4.8938 2.19505031 4.8938 4.89384031s-2.195 4.89384-4.8938 4.89384h-19.2712c-7.2179 0-13.17516 5.87209-13.27737 13.08759-.0511 3.5359 1.30197 6.882 3.80607 9.4251 2.5722 2.6087 6.006 4.0445 9.6733 4.0445.1071 0 .2166 0 .3237-.0048 5.1834-.1217 10.1965-2.0564 14.1169-5.4487l14.2654-12.3356c2.5455 0 13.6303.0048 13.7203.0048h.1046 5.8527v27.7229h-9.7877z"/></g></svg>