<svg fill="none" height="108" viewBox="0 0 167 108" width="167" xmlns="http://www.w3.org/2000/svg" xmlns:xlink="http://www.w3.org/1999/xlink"><linearGradient id="a" gradientUnits="userSpaceOnUse" x1="155.397" x2="96.918" y1="11.6479" y2="11.6479"><stop offset=".28" stop-color="#533094"/><stop offset="1" stop-color="#543094" stop-opacity="0"/></linearGradient><linearGradient id="b" gradientUnits="userSpaceOnUse" x1="91.786118" x2="18.74971" y1="38.03017" y2="93.124718"><stop offset="0" stop-color="#8629e0"/><stop offset="1" stop-color="#dd4afc"/></linearGradient><path d="m155.397.338196h-58.479v22.613804h58.479z" fill="url(#a)"/><path d="m155.29 22.9576c6.246 0 11.31-5.0635 11.31-11.3097 0-6.24618-5.064-11.309704-11.31-11.309704s-11.31 5.063524-11.31 11.309704c0 6.2462 5.064 11.3097 11.31 11.3097z" fill="#da49ff"/><path d="m143.908 107.99v-54.2789l-41.288 35.7066c-13.5962 11.7573-30.9797 18.2323-48.9575 18.2323-14.3664 0-27.8724-5.626-38.033-15.8436-10.16061-10.2172-15.7079097-23.7572-15.62866253-38.1236.16981553-29.4177 24.52136253-53.344665 54.28436253-53.344665h44.1973c6.2775 0 11.3835 5.105785 11.3835 11.383265 0 6.2775-5.106 11.3833-11.3835 11.3833h-44.8256c-16.7891 0-30.6461 13.6588-30.8838 30.4423-.1189 8.2247 3.0284 16.0079 8.853 21.9231 5.9832 6.0681 13.9702 9.4078 22.5006 9.4078.249 0 .5038 0 .7528-.0113 12.0569-.283 23.7176-4.7831 32.8367-12.6739l33.1818-28.6931c5.921 0 31.705.0113 31.914.0113h.243 13.614v64.4841h-22.767z" fill="url(#b)"/></svg>